<svg xmlns="http://www.w3.org/2000/svg" xmlns:xlink="http://www.w3.org/1999/xlink" width="500" zoomAndPan="magnify" viewBox="0 0 375 374.999991" height="500" preserveAspectRatio="xMidYMid meet" version="1.0"><defs><g/><clipPath id="88fa4e1f7c"><path d="M 119.308594 104 L 188 104 L 188 164.605469 L 119.308594 164.605469 Z M 119.308594 104 " clip-rule="nonzero"/></clipPath><clipPath id="e33dbe39cf"><path d="M 187 73.105469 L 255.808594 73.105469 L 255.808594 134 L 187 134 Z M 187 73.105469 " clip-rule="nonzero"/></clipPath></defs><g clip-path="url(#88fa4e1f7c)"><path fill="#0652e9" d="M 165.269531 147.078125 L 165.269531 155.363281 L 127.644531 137.9375 L 127.644531 131.214844 L 165.269531 113.789062 L 165.269531 122.074219 L 136.816406 134.496094 L 136.816406 134.65625 Z M 187.617188 104.585938 L 124.691406 104.585938 C 121.722656 104.585938 119.3125 106.988281 119.3125 109.949219 L 119.3125 159.203125 C 119.3125 162.164062 121.722656 164.566406 124.691406 164.566406 L 170.148438 164.566406 L 187.617188 104.585938 " fill-opacity="1" fill-rule="nonzero"/></g><g clip-path="url(#e33dbe39cf)"><path fill="#38b6ff" d="M 247.488281 106.71875 L 209.863281 123.910156 L 209.863281 115.625 L 238.945312 103.203125 L 238.945312 103.046875 L 209.863281 90.621094 L 209.863281 82.335938 L 247.488281 99.527344 Z M 205.085938 73.132812 L 187.617188 133.113281 L 250.4375 133.113281 C 253.410156 133.113281 255.816406 130.710938 255.816406 127.75 L 255.816406 78.496094 C 255.816406 75.535156 253.410156 73.132812 250.4375 73.132812 L 205.085938 73.132812 " fill-opacity="1" fill-rule="nonzero"/></g><g fill="#000000" fill-opacity="1"><g transform="translate(88.030813, 210.359897)"><g><path d="M 12.074219 0.28125 C 16.238281 0.28125 19.84375 -2.066406 21.628906 -5.496094 L 17.636719 -7.558594 C 16.625 -5.566406 14.558594 -4.234375 12.074219 -4.234375 C 8.539062 -4.234375 5.84375 -6.964844 5.84375 -10.5 C 5.84375 -14.035156 8.539062 -16.761719 12.074219 -16.761719 C 14.558594 -16.761719 16.625 -15.433594 17.636719 -13.4375 L 21.628906 -15.503906 C 19.84375 -18.933594 16.238281 -21.277344 12.074219 -21.277344 C 6.125 -21.277344 1.292969 -16.449219 1.292969 -10.5 C 1.292969 -4.550781 6.125 0.28125 12.074219 0.28125 Z M 12.074219 0.28125 "/></g></g></g><g fill="#000000" fill-opacity="1"><g transform="translate(111.799697, 210.359897)"><g><path d="M 12.074219 0.28125 C 18.058594 0.28125 22.851562 -4.550781 22.851562 -10.5 C 22.851562 -16.449219 18.058594 -21.277344 12.074219 -21.277344 C 6.125 -21.277344 1.292969 -16.449219 1.292969 -10.5 C 1.292969 -4.550781 6.125 0.28125 12.074219 0.28125 Z M 12.074219 -4.234375 C 8.539062 -4.234375 5.84375 -6.964844 5.84375 -10.5 C 5.84375 -14.035156 8.539062 -16.761719 12.074219 -16.761719 C 15.644531 -16.761719 18.339844 -14.035156 18.339844 -10.5 C 18.339844 -6.964844 15.644531 -4.234375 12.074219 -4.234375 Z M 12.074219 -4.234375 "/></g></g></g><g fill="#000000" fill-opacity="1"><g transform="translate(137.213344, 210.359897)"><g><path d="M 20.367188 -21 L 13.683594 -6.472656 L 7.070312 -21 L 2.066406 -21 L 2.066406 0 L 6.683594 0 L 6.683594 -12.527344 L 12.355469 0 L 15.011719 0 L 20.71875 -12.492188 L 20.71875 0 L 25.335938 0 L 25.335938 -21 Z M 20.367188 -21 "/></g></g></g><g fill="#000000" fill-opacity="1"><g transform="translate(165.846546, 210.359897)"><g><path d="M 20.367188 -21 L 13.683594 -6.472656 L 7.070312 -21 L 2.066406 -21 L 2.066406 0 L 6.683594 0 L 6.683594 -12.527344 L 12.355469 0 L 15.011719 0 L 20.71875 -12.492188 L 20.71875 0 L 25.335938 0 L 25.335938 -21 Z M 20.367188 -21 "/></g></g></g><g fill="#000000" fill-opacity="1"><g transform="translate(194.479753, 210.359897)"><g><path d="M 10.675781 0.28125 C 15.644531 0.28125 19.421875 -2.765625 19.421875 -6.71875 L 19.421875 -21 L 14.804688 -21 L 14.804688 -7.59375 C 14.804688 -5.460938 13.019531 -3.816406 10.675781 -3.816406 C 8.363281 -3.816406 6.578125 -5.460938 6.578125 -7.59375 L 6.578125 -21 L 1.960938 -21 L 1.960938 -6.71875 C 1.960938 -2.765625 5.773438 0.28125 10.675781 0.28125 Z M 10.675781 0.28125 "/></g></g></g><g fill="#000000" fill-opacity="1"><g transform="translate(217.093792, 210.359897)"><g><path d="M 17.148438 -21 L 17.148438 -7.105469 L 6.824219 -21 L 2.066406 -21 L 2.066406 0 L 6.683594 0 L 6.683594 -13.929688 L 16.972656 0 L 21.734375 0 L 21.734375 -21 Z M 17.148438 -21 "/></g></g></g><g fill="#000000" fill-opacity="1"><g transform="translate(242.157496, 210.359897)"><g><path d="M 2.238281 0 L 6.859375 0 L 6.859375 -21 L 2.238281 -21 Z M 2.238281 0 "/></g></g></g><g fill="#000000" fill-opacity="1"><g transform="translate(252.453252, 210.359897)"><g><path d="M 15.011719 -21 L -0.175781 -21 L -0.175781 -16.902344 L 5.144531 -16.902344 L 5.144531 0 L 9.730469 0 L 9.730469 -16.902344 L 15.011719 -16.902344 Z M 15.011719 -21 "/></g></g></g><g fill="#000000" fill-opacity="1"><g transform="translate(268.523205, 210.359897)"><g><path d="M 18.863281 -21 L 13.71875 -21 L 9.238281 -13.894531 L 4.757812 -21 L -0.453125 -21 L 6.929688 -9.867188 L 6.929688 0 L 11.550781 0 L 11.550781 -9.902344 Z M 18.863281 -21 "/></g></g></g><g fill="#0652e9" fill-opacity="1"><g transform="translate(124.862842, 249.359895)"><g><path d="M 12.074219 0.28125 C 16.238281 0.28125 19.84375 -2.066406 21.628906 -5.496094 L 17.636719 -7.558594 C 16.625 -5.566406 14.558594 -4.234375 12.074219 -4.234375 C 8.539062 -4.234375 5.84375 -6.964844 5.84375 -10.5 C 5.84375 -14.035156 8.539062 -16.761719 12.074219 -16.761719 C 14.558594 -16.761719 16.625 -15.433594 17.636719 -13.4375 L 21.628906 -15.503906 C 19.84375 -18.933594 16.238281 -21.277344 12.074219 -21.277344 C 6.125 -21.277344 1.292969 -16.449219 1.292969 -10.5 C 1.292969 -4.550781 6.125 0.28125 12.074219 0.28125 Z M 12.074219 0.28125 "/></g></g></g><g fill="#0652e9" fill-opacity="1"><g transform="translate(148.631726, 249.359895)"><g><path d="M 12.074219 0.28125 C 18.058594 0.28125 22.851562 -4.550781 22.851562 -10.5 C 22.851562 -16.449219 18.058594 -21.277344 12.074219 -21.277344 C 6.125 -21.277344 1.292969 -16.449219 1.292969 -10.5 C 1.292969 -4.550781 6.125 0.28125 12.074219 0.28125 Z M 12.074219 -4.234375 C 8.539062 -4.234375 5.84375 -6.964844 5.84375 -10.5 C 5.84375 -14.035156 8.539062 -16.761719 12.074219 -16.761719 C 15.644531 -16.761719 18.339844 -14.035156 18.339844 -10.5 C 18.339844 -6.964844 15.644531 -4.234375 12.074219 -4.234375 Z M 12.074219 -4.234375 "/></g></g></g><g fill="#0652e9" fill-opacity="1"><g transform="translate(174.045373, 249.359895)"><g><path d="M 2.066406 0 L 8.996094 0 C 14.769531 0 19.492188 -4.691406 19.492188 -10.5 C 19.492188 -16.308594 14.769531 -21 8.996094 -21 L 2.066406 -21 Z M 6.683594 -4.09375 L 6.683594 -16.902344 L 8.960938 -16.902344 C 12.285156 -16.902344 14.875 -14.140625 14.875 -10.5 C 14.875 -6.859375 12.285156 -4.09375 8.960938 -4.09375 Z M 6.683594 -4.09375 "/></g></g></g><g fill="#0652e9" fill-opacity="1"><g transform="translate(196.064502, 249.359895)"><g><path d="M 14.875 -16.9375 L 14.875 -21 L 2.238281 -21 L 2.238281 0 L 14.875 0 L 14.875 -4.058594 L 6.859375 -4.058594 L 6.859375 -8.46875 L 13.71875 -8.46875 L 13.71875 -12.527344 L 6.859375 -12.527344 L 6.859375 -16.9375 Z M 14.875 -16.9375 "/></g></g></g><g fill="#0652e9" fill-opacity="1"><g transform="translate(213.604254, 249.359895)"><g><path d="M 13.019531 -8.644531 C 15.503906 -9.378906 17.253906 -11.6875 17.253906 -14.558594 C 17.253906 -18.128906 14.59375 -21 10.988281 -21 L 2.066406 -21 L 2.066406 0 L 6.683594 0 L 6.683594 -8.121094 L 8.539062 -8.121094 L 13.71875 0 L 18.898438 0 Z M 10.289062 -11.933594 L 6.683594 -11.933594 L 6.683594 -16.902344 L 10.289062 -16.902344 C 11.757812 -16.902344 12.84375 -15.855469 12.84375 -14.417969 C 12.84375 -12.949219 11.757812 -11.933594 10.289062 -11.933594 Z M 10.289062 -11.933594 "/></g></g></g><g fill="#0652e9" fill-opacity="1"><g transform="translate(233.558657, 249.359895)"><g><path d="M 8.539062 0.28125 C 12.457031 0.28125 15.785156 -2.03125 15.785156 -5.949219 C 15.785156 -13.71875 6.125 -11.792969 6.125 -15.433594 C 6.125 -16.625 7.035156 -17.183594 8.152344 -17.183594 C 9.34375 -17.183594 10.535156 -16.519531 11.582031 -15.363281 L 14.664062 -18.304688 C 13.125 -20.089844 10.777344 -21.277344 8.1875 -21.277344 C 4.863281 -21.277344 1.46875 -19.285156 1.46875 -15.082031 C 1.46875 -7.945312 11.164062 -9.660156 11.164062 -5.984375 C 11.164062 -4.828125 10.183594 -4.058594 8.574219 -4.058594 C 6.648438 -4.058594 5.144531 -5.144531 4.375 -6.789062 L 0.558594 -4.410156 C 1.925781 -1.785156 4.863281 0.28125 8.539062 0.28125 Z M 8.539062 0.28125 "/></g></g></g><g fill="#000000" fill-opacity="1"><g transform="translate(128.400443, 282.092619)"><g><path d="M 2.054688 -0.960938 L 2.054688 -9 L 1.09375 -9 L 1.09375 0 L 5.398438 0 L 5.398438 -0.960938 Z M 2.054688 -0.960938 "/></g></g></g><g fill="#000000" fill-opacity="1"><g transform="translate(137.955509, 282.092619)"><g><path d="M 6.089844 -8.070312 L 6.089844 -9 L 1.171875 -9 L 1.171875 0 L 6.089844 0 L 6.089844 -0.929688 L 2.128906 -0.929688 L 2.128906 -4.035156 L 5.578125 -4.035156 L 5.578125 -4.964844 L 2.128906 -4.964844 L 2.128906 -8.070312 Z M 6.089844 -8.070312 "/></g></g></g><g fill="#000000" fill-opacity="1"><g transform="translate(148.965578, 282.092619)"><g><path d="M 6.523438 0 L 7.574219 0 L 4.320312 -9 L 3.253906 -9 L 0 0 L 1.050781 0 L 1.785156 -2.101562 L 5.789062 -2.101562 Z M 2.101562 -3.015625 L 3.796875 -7.859375 L 5.476562 -3.015625 Z M 2.101562 -3.015625 "/></g></g></g><g fill="#000000" fill-opacity="1"><g transform="translate(160.560645, 282.092619)"><g><path d="M 4.738281 -4.109375 C 5.925781 -4.273438 6.824219 -5.265625 6.824219 -6.480469 C 6.824219 -7.890625 5.699219 -9 4.320312 -9 L 1.09375 -9 L 1.09375 0 L 2.054688 0 L 2.054688 -4.066406 L 3.75 -4.066406 L 6.300781 0 L 7.394531 0 Z M 2.054688 -4.980469 L 2.054688 -8.039062 L 4.261719 -8.039062 C 5.160156 -8.039062 5.863281 -7.410156 5.863281 -6.511719 C 5.863281 -5.59375 5.175781 -4.980469 4.261719 -4.980469 Z M 2.054688 -4.980469 "/></g></g></g><g fill="#000000" fill-opacity="1"><g transform="translate(172.110714, 282.092619)"><g><path d="M 7.558594 -9 L 7.558594 -1.605469 L 1.996094 -9 L 1.09375 -9 L 1.09375 0 L 2.054688 0 L 2.054688 -7.394531 L 7.605469 0 L 8.503906 0 L 8.503906 -9 Z M 7.558594 -9 "/></g></g></g><g fill="#000000" fill-opacity="1"><g transform="translate(185.730779, 282.092619)"><g/></g></g><g fill="#000000" fill-opacity="1"><g transform="translate(193.365847, 282.092619)"><g><path d="M 5.386719 -4.769531 L 5.386719 -3.871094 L 9 -3.871094 C 8.714844 -2.128906 7.214844 -0.839844 5.398438 -0.839844 C 3.375 -0.839844 1.738281 -2.460938 1.738281 -4.5 C 1.738281 -6.539062 3.375 -8.160156 5.398438 -8.160156 C 6.765625 -8.160156 7.964844 -7.425781 8.578125 -6.316406 L 9.40625 -6.78125 C 8.625 -8.175781 7.125 -9.121094 5.398438 -9.121094 C 2.835938 -9.121094 0.78125 -7.050781 0.78125 -4.5 C 0.78125 -1.949219 2.835938 0.121094 5.398438 0.121094 C 7.949219 0.121094 10.019531 -1.949219 10.019531 -4.5 L 10.019531 -4.769531 Z M 5.386719 -4.769531 "/></g></g></g><g fill="#000000" fill-opacity="1"><g transform="translate(208.170913, 282.092619)"><g><path d="M 4.738281 -4.109375 C 5.925781 -4.273438 6.824219 -5.265625 6.824219 -6.480469 C 6.824219 -7.890625 5.699219 -9 4.320312 -9 L 1.09375 -9 L 1.09375 0 L 2.054688 0 L 2.054688 -4.066406 L 3.75 -4.066406 L 6.300781 0 L 7.394531 0 Z M 2.054688 -4.980469 L 2.054688 -8.039062 L 4.261719 -8.039062 C 5.160156 -8.039062 5.863281 -7.410156 5.863281 -6.511719 C 5.863281 -5.59375 5.175781 -4.980469 4.261719 -4.980469 Z M 2.054688 -4.980469 "/></g></g></g><g fill="#000000" fill-opacity="1"><g transform="translate(219.720982, 282.092619)"><g><path d="M 5.355469 0.121094 C 7.921875 0.121094 9.976562 -1.949219 9.976562 -4.5 C 9.976562 -7.050781 7.921875 -9.121094 5.355469 -9.121094 C 2.804688 -9.121094 0.734375 -7.050781 0.734375 -4.5 C 0.734375 -1.949219 2.804688 0.121094 5.355469 0.121094 Z M 5.355469 -0.839844 C 3.328125 -0.839844 1.695312 -2.460938 1.695312 -4.5 C 1.695312 -6.539062 3.328125 -8.160156 5.355469 -8.160156 C 7.394531 -8.160156 9.015625 -6.539062 9.015625 -4.5 C 9.015625 -2.460938 7.394531 -0.839844 5.355469 -0.839844 Z M 5.355469 -0.839844 "/></g></g></g><g fill="#000000" fill-opacity="1"><g transform="translate(234.466041, 282.092619)"><g><path d="M 11.234375 -9 L 8.925781 -1.605469 L 6.734375 -9 L 5.386719 -9 L 3.226562 -1.621094 L 0.929688 -9 L -0.0898438 -9 L 2.730469 0 L 3.75 0 L 6.058594 -7.980469 L 8.414062 0 L 9.421875 0 L 12.226562 -9 Z M 11.234375 -9 "/></g></g></g><g fill="#000000" fill-opacity="1"><g transform="translate(153.267629, 298.592618)"><g><path d="M 1.171875 0 L 2.128906 0 L 2.128906 -9 L 1.171875 -9 Z M 1.171875 0 "/></g></g></g><g fill="#000000" fill-opacity="1"><g transform="translate(160.572696, 298.592618)"><g><path d="M 7.558594 -9 L 7.558594 -1.605469 L 1.996094 -9 L 1.09375 -9 L 1.09375 0 L 2.054688 0 L 2.054688 -7.394531 L 7.605469 0 L 8.503906 0 L 8.503906 -9 Z M 7.558594 -9 "/></g></g></g><g fill="#000000" fill-opacity="1"><g transform="translate(174.192761, 298.592618)"><g><path d="M 3.359375 0.121094 C 4.890625 0.121094 6.136719 -0.796875 6.136719 -2.371094 C 6.136719 -5.429688 1.753906 -4.679688 1.753906 -6.824219 C 1.753906 -7.726562 2.488281 -8.160156 3.328125 -8.160156 C 4.019531 -8.160156 4.589844 -7.875 4.949219 -7.363281 L 5.699219 -7.996094 C 5.203125 -8.625 4.335938 -9.121094 3.300781 -9.121094 C 1.921875 -9.121094 0.796875 -8.21875 0.796875 -6.75 C 0.796875 -3.855469 5.175781 -4.574219 5.175781 -2.339844 C 5.175781 -1.378906 4.378906 -0.839844 3.375 -0.839844 C 2.355469 -0.839844 1.621094 -1.394531 1.304688 -2.21875 L 0.433594 -1.710938 C 0.898438 -0.601562 2.023438 0.121094 3.359375 0.121094 Z M 3.359375 0.121094 "/></g></g></g><g fill="#000000" fill-opacity="1"><g transform="translate(184.782831, 298.592618)"><g><path d="M 4.320312 -9 L 1.09375 -9 L 1.09375 0 L 2.054688 0 L 2.054688 -4.003906 L 4.320312 -4.003906 C 5.714844 -4.003906 6.824219 -5.101562 6.824219 -6.496094 C 6.824219 -7.875 5.714844 -9 4.320312 -9 Z M 4.230469 -4.921875 L 2.054688 -4.921875 L 2.054688 -8.070312 L 4.230469 -8.070312 C 5.128906 -8.070312 5.863281 -7.441406 5.863281 -6.480469 C 5.863281 -5.488281 5.128906 -4.921875 4.230469 -4.921875 Z M 4.230469 -4.921875 "/></g></g></g><g fill="#000000" fill-opacity="1"><g transform="translate(195.882895, 298.592618)"><g><path d="M 1.171875 0 L 2.128906 0 L 2.128906 -9 L 1.171875 -9 Z M 1.171875 0 "/></g></g></g><g fill="#000000" fill-opacity="1"><g transform="translate(203.187962, 298.592618)"><g><path d="M 4.738281 -4.109375 C 5.925781 -4.273438 6.824219 -5.265625 6.824219 -6.480469 C 6.824219 -7.890625 5.699219 -9 4.320312 -9 L 1.09375 -9 L 1.09375 0 L 2.054688 0 L 2.054688 -4.066406 L 3.75 -4.066406 L 6.300781 0 L 7.394531 0 Z M 2.054688 -4.980469 L 2.054688 -8.039062 L 4.261719 -8.039062 C 5.160156 -8.039062 5.863281 -7.410156 5.863281 -6.511719 C 5.863281 -5.59375 5.175781 -4.980469 4.261719 -4.980469 Z M 2.054688 -4.980469 "/></g></g></g><g fill="#000000" fill-opacity="1"><g transform="translate(214.738031, 298.592618)"><g><path d="M 6.089844 -8.070312 L 6.089844 -9 L 1.171875 -9 L 1.171875 0 L 6.089844 0 L 6.089844 -0.929688 L 2.128906 -0.929688 L 2.128906 -4.035156 L 5.578125 -4.035156 L 5.578125 -4.964844 L 2.128906 -4.964844 L 2.128906 -8.070312 Z M 6.089844 -8.070312 "/></g></g></g></svg>